<svg width="1037" height="202" viewBox="0 0 1037 202" fill="none" xmlns="http://www.w3.org/2000/svg">
<g filter="url(#filter0_d_127_91)">
<path d="M0 180.486C0 168.905 11.0921 123.877 9.83333 91.6761C9.89922 86.511 9.08804 81.3721 7.43417 76.4772H11.3503C13.1503 81.3521 14.0859 86.5024 14.1152 91.6975C14.9974 124.907 4.16357 170.697 4.16357 181.259C4.16357 191.821 8.95113 194.966 16.7726 194.966C22.8189 194.966 26.1003 191.316 26.1003 183.395C26.1003 171.695 19.9141 111.576 19.9141 77.9907V66.5379C19.9141 10.5726 14.8791 4.15392 7.81072 0.504481L8.06893 0C17.6548 2.64048 24.3359 3.64944 32.6523 3.64944H34.1692C42.4856 3.64944 49.1667 2.64048 58.7526 0L59 0.504481C51.9424 4.15392 46.8966 10.5726 46.8966 66.5379L46.7783 65.9153V76.4772C46.7783 117.866 53.3302 165.159 53.3302 178.747C53.3302 192.336 44.3791 200 21.9367 200C5.66977 200 0 195.728 0 180.486Z" fill="white"/>
</g>
<g filter="url(#filter1_d_127_91)">
<path d="M65.8653 177.047C65.8653 166.2 74.6447 158.754 74.6447 147.294C74.6447 124.459 65 111.783 65 99.4943C65 87.2054 75.8794 76.0573 75.8794 52.7063C75.8794 41.2353 69.453 31.2709 69.453 19.5416C69.453 5.67094 84.0468 0 109.763 0C135.088 0 150.325 5.67094 150.325 19.5416C150.325 31.2709 143.994 41.2353 143.994 52.7063C143.994 76.0357 155 87.1409 155 99.4943C155 111.848 145.355 124.459 145.355 147.294C145.355 158.765 154.135 166.2 154.135 177.047C154.135 194.447 137.072 200 109.741 200C82.8016 200 65.8653 194.426 65.8653 177.047ZM126.952 187.259C126.952 177.801 114.712 166.814 114.712 149.435C114.712 112.741 150.695 116.389 150.695 99.7525C150.695 82.5998 114.089 79.1886 114.089 50.4466C114.089 33.0141 125.897 22.0704 125.897 12.4825C125.897 5.92919 121.075 3.7878 109.815 3.7878C98.8094 3.7878 94.1136 5.93996 94.1136 12.4825C94.0608 22.0704 105.848 33.0141 105.848 50.4466C105.848 79.1886 69.1998 82.5998 69.1998 99.731C69.1998 116.367 105.193 112.719 105.193 149.414C105.193 166.814 92.9423 177.779 92.9423 187.238C92.9423 194.049 97.8913 196.191 109.763 196.191C121.634 196.191 126.952 194.071 126.952 187.259Z" fill="white"/>
</g>
<g filter="url(#filter2_d_127_91)">
<path d="M161.245 200L161 199.497C167.99 195.857 172.987 189.454 172.987 133.63V66.3705C172.987 10.546 167.99 4.14347 161 0.503212L161.245 0C170.739 2.63383 177.356 3.64026 185.603 3.64026H186.849C196.215 3.64026 203.578 0.749465 215.192 0.749465C226.177 0.749465 233.551 3.64026 242.895 3.64026H244.397C252.634 3.64026 259.315 2.63383 268.744 0L269 0.503212C262 4.14347 257.013 10.546 257.013 66.3705L256.885 65.7495V133.63C256.885 189.454 261.882 195.857 268.872 199.497L268.616 200C259.133 197.366 252.517 196.36 244.27 196.36H242.927C233.572 196.36 226.199 199.251 215.224 199.251C203.61 199.251 196.247 196.36 186.881 196.36H185.603C177.356 196.36 170.739 197.366 161.245 200ZM199.603 93.5974H230.141V66.3705C230.141 8.02998 223.801 3.37259 215.224 3.37259C206.646 3.37259 199.614 8.00857 199.614 66.349L199.603 93.5974ZM230.141 100.246V97.1092H199.582V100.246H230.141ZM215.16 196.606C223.769 196.606 230.141 191.97 230.141 133.63V103.887H199.582V133.63C199.582 191.97 206.572 196.606 215.224 196.606H215.16Z" fill="white"/>
</g>
<g filter="url(#filter3_d_127_91)">
<path d="M335.375 196.351C325.607 196.351 317.09 199.496 307.44 199.496C299.425 199.496 293.793 196.351 286.654 196.351C281.771 196.351 277.517 197.36 269.246 200L269 199.496C275.636 196.104 280.755 189.685 285.65 133.956L295.802 25.1597C297.801 4.02512 303.187 0 313.831 0C326.355 0 332.618 5.28095 335.204 30.0542L345.602 130.425C351.48 190.533 356.364 196.093 363 199.485L362.754 199.989C353.853 197.442 344.629 196.216 335.375 196.351V196.351ZM318.843 157.441H296.294C296.176 190.769 299.5 196.082 306.98 196.082C313.959 196.082 318.971 190.436 318.843 157.441ZM318.843 153.792V150.776H296.294V153.792H318.843ZM296.401 147.126H318.693C318.565 141.845 318.319 135.931 317.945 129.512L311.618 24.0219C310.999 12.5798 309.364 10.9483 306.104 10.9483C302.845 10.9483 300.472 13.095 300.226 23.9038L296.657 135.222C296.55 139.494 296.422 143.487 296.422 147.169L296.401 147.126Z" fill="white"/>
</g>
<g filter="url(#filter4_d_127_91)">
<path d="M447.506 3.64026C455.129 3.64026 460.375 2.38758 468.744 0.12848L469 0.631691C462.496 4.27195 454.383 8.02998 455.385 66.6274L457.101 179.293C457.592 193.726 450.224 199.497 436.108 199.497C419.742 199.497 412.364 194.143 409.368 165.996L396.329 27.9979C394.324 11.3169 392.704 9.30407 388.45 9.30407C385.081 9.30407 382.831 12.1949 382.831 17.9657C382.831 19.3469 382.959 20.9743 383.46 31.2634L388.866 138.769C392.117 191.231 396.862 195.107 405.359 199.497L405.114 200C396.361 197.366 390.87 196.36 383.247 196.36C376.743 196.36 371.625 197.109 363.256 200L363 199.497C369.248 195.985 377.617 189.957 377.617 138.469L377.745 21.4026C377.617 6.85225 383.375 0.449679 398.237 0.449679C412.482 0.449679 422.099 6.34904 424.977 26.424L439.094 181.124C440.714 190.032 443.092 191.542 446.344 191.542C449.595 191.542 452.837 188.908 452.837 182.377C452.837 180.996 452.591 178.865 451.834 168.705L444.627 66.1242C440.128 11.6702 434.253 4.0257 427.131 0.503212L427.259 0C435.874 2.89079 441.247 3.64026 447.506 3.64026Z" fill="white"/>
</g>
<g filter="url(#filter5_d_127_91)">
<path d="M548.7 3.63987C556.254 3.63987 561.452 2.38732 569.746 0.128466L570 0.631624C563.555 4.27149 555.504 8.02912 556.497 66.6203L558.23 179.274C558.727 193.705 551.426 199.475 537.437 199.475C521.209 199.475 513.908 194.123 510.939 165.978L497.933 27.9949C495.957 11.3157 494.34 9.30307 490.135 9.30307C486.797 9.30307 484.567 12.1936 484.567 17.9638C484.567 19.3448 484.684 20.9721 485.18 31.26L490.632 138.775C493.802 191.232 498.556 195.108 506.977 199.497L506.723 200C498.059 197.366 492.608 196.36 485.064 196.36C478.619 196.36 473.548 197.11 465.254 200L465 199.497C471.191 195.985 479.485 189.958 479.485 138.476L479.612 21.4217C479.485 6.87293 485.18 0.471042 499.919 0.471042C514.035 0.471042 523.565 6.36977 526.417 26.4426L540.406 181.126C542.012 190.033 544.368 191.543 547.58 191.543C550.792 191.543 554.025 188.909 554.025 182.379C554.025 180.998 553.771 178.867 553.032 168.708L545.868 66.1171C541.42 11.669 535.599 4.02526 528.541 0.503158L528.668 0C537.184 2.89048 542.509 3.63987 548.7 3.63987Z" fill="white"/>
</g>
<g filter="url(#filter6_d_127_91)">
<path d="M627.375 196.351C617.607 196.351 609.09 199.496 599.44 199.496C591.425 199.496 585.793 196.351 578.654 196.351C573.771 196.351 569.517 197.36 561.246 200L561 199.496C567.636 196.104 572.755 189.685 577.65 133.956L587.791 25.1597C589.801 4.02512 595.144 0 605.831 0C618.355 0 624.618 5.28095 627.204 30.0542L637.602 130.425C643.48 190.533 648.364 196.093 655 199.485L654.754 199.989C645.853 197.442 636.629 196.216 627.375 196.351V196.351ZM610.843 157.441H588.294C588.176 190.769 591.5 196.082 598.98 196.082C605.959 196.082 610.96 190.436 610.843 157.441ZM610.843 153.792V150.776H588.294V153.792H610.843ZM588.401 147.126H610.693C610.565 141.845 610.319 135.931 609.945 129.512L603.533 23.979C602.902 12.5369 601.278 10.9054 598.019 10.9054C594.759 10.9054 592.387 13.0521 592.141 23.8609L588.732 135.222C588.55 139.494 588.422 143.487 588.422 147.169L588.401 147.126Z" fill="white"/>
</g>
<g filter="url(#filter7_d_127_91)">
<path d="M704.107 189.585C701.384 195.729 697.184 199.872 691.116 200L691 199.497C693.343 198.244 696.065 195.354 699.442 187.454L700.645 184.318C699.721 181.876 699.259 179.28 699.284 176.665C699.284 165.875 708.064 158.467 708.064 147.067C708.064 124.352 698.419 111.743 698.419 99.5183C698.419 87.2939 709.299 76.2042 709.299 52.9758C709.299 41.565 702.872 31.6527 702.872 19.985C702.872 6.18711 717.456 0.545921 743.185 0.545921C762.602 0.545921 776.078 3.75723 781.271 11.5821L781.766 10.7043C784.363 4.56005 788.689 0.17127 794.873 0L795 0.503104C792.647 1.75551 789.935 4.78484 786.558 12.5455L783.719 18.4436V19.9422C783.719 31.6099 777.387 41.5222 777.387 52.933C777.387 76.14 788.394 87.1869 788.394 99.4755C788.394 111.764 778.748 124.31 778.748 147.024C778.748 158.435 787.528 165.832 787.528 176.622C787.528 193.931 770.464 199.454 743.132 199.454C724.601 199.497 710.882 196.864 704.107 189.585ZM729.877 124.374L754.149 69.1608C749.768 64.0563 747.39 57.4955 747.469 50.7279C747.469 33.4083 759.215 22.5005 759.215 12.963C759.215 6.44402 754.392 4.31385 743.142 4.31385C732.136 4.31385 727.44 6.45472 727.44 12.963C727.44 22.5005 739.185 33.4083 739.185 50.7279C739.185 79.3192 702.577 82.7125 702.577 99.7752C702.619 110.94 719.071 112.942 729.877 124.374ZM760.428 186.844C760.428 177.435 748.187 166.506 748.187 149.219C748.187 112.717 784.173 116.346 784.173 99.7966C784.173 88.7497 768.955 83.4832 758.202 73.4532L733.465 129.116C736.557 134.125 738.657 140.527 738.657 149.186C738.657 166.495 726.416 177.403 726.416 186.812C726.416 193.588 731.365 195.718 743.237 195.718C755.11 195.718 760.376 193.599 760.376 186.823L760.428 186.844Z" fill="white"/>
</g>
<g filter="url(#filter8_d_127_91)">
<path d="M795.242 200L795 199.497C801.911 195.857 806.852 189.454 806.852 133.63V66.3705C806.852 10.546 801.911 4.14347 795 0.503212L795.242 0C804.629 2.63383 811.172 3.64026 819.315 3.64026H820.674C828.829 3.64026 835.424 2.63383 844.747 0L845 0.503212C838.089 4.14347 833.148 10.546 833.148 66.3705V133.63C833.148 189.454 838.089 195.857 845 199.497L844.747 200C835.371 197.366 828.829 196.36 820.674 196.36H819.315C811.172 196.36 804.629 197.366 795.242 200Z" fill="white"/>
</g>
<g filter="url(#filter9_d_127_91)">
<path d="M917.419 3.0277C920.975 3.11823 924.467 2.05735 927.384 0L928 0.375778C923.145 8.81469 919.66 22.3964 919.66 43.3219C919.66 60.8009 919.788 72.128 920.903 83.9596H919.331C915.719 57.0324 909.493 33.1222 904.765 20.6678C900.038 8.21344 895.926 3.81147 889.701 3.81147C880.235 3.81147 879.491 11.6062 879.491 95.0719C893.812 91.2927 895.183 84.1207 901.897 41.7221H903.395C900.654 76.326 899.783 118.478 903.395 155.089H901.897C895.183 109.287 893.812 101.406 879.491 97.7131C879.491 183.015 879.746 196.103 889.052 196.103C894.906 196.103 898.89 191.701 904.245 177.99C909.599 164.28 917.44 136.848 921.796 105.894H923.58C921.536 123.178 920.536 140.571 920.584 157.977C920.584 177.732 922.709 191.83 927.182 199.753L926.81 200C923.753 198.064 920.208 197.061 916.6 197.112C909.004 197.112 900.548 199.753 889.955 199.753C865.935 199.753 849 187.041 849 97.7561C849 12.1967 866.678 0.24694 888.309 0.24694C899.868 0.150311 909.206 3.0277 917.419 3.0277Z" fill="white"/>
</g>
<g filter="url(#filter10_d_127_91)">
<path d="M1013.91 3.63987C1021.39 3.63987 1026.54 2.38732 1034.76 0.128466L1035 0.631624C1028.63 4.27149 1020.65 8.02912 1021.63 66.6203L1023.35 179.274C1023.84 193.705 1016.6 199.475 1002.74 199.475C986.679 199.475 979.447 194.123 976.495 165.978L963.622 27.9949C961.655 11.3157 960.064 9.30307 955.898 9.30307C952.581 9.30307 950.372 12.1936 950.372 17.9638C950.372 19.3448 950.498 20.9721 950.99 31.26L956.39 138.775C959.53 191.232 964.24 195.108 972.571 199.497L972.33 200C963.748 197.366 958.347 196.36 950.864 196.36C944.491 196.36 939.456 197.11 931.241 200L931 199.497C937.133 195.985 945.349 189.958 945.349 138.476L945.474 21.4217C945.349 6.87293 950.99 0.471042 965.579 0.471042C979.562 0.471042 989.013 6.36977 991.828 26.4426L1005.7 181.126C1007.29 190.033 1009.61 191.543 1012.8 191.543C1015.99 191.543 1019.19 188.909 1019.19 182.379C1019.19 180.998 1018.93 178.867 1018.2 168.708L1011.05 66.1171C1006.64 11.669 1000.87 4.02526 993.879 0.503158L994.005 0C1002.5 2.89048 1007.78 3.63987 1013.91 3.63987Z" fill="white"/>
</g>
<defs>
<filter id="filter0_d_127_91" x="0" y="0" width="61" height="202" filterUnits="userSpaceOnUse" color-interpolation-filters="sRGB">
<feFlood flood-opacity="0" result="BackgroundImageFix"/>
<feColorMatrix in="SourceAlpha" type="matrix" values="0 0 0 0 0 0 0 0 0 0 0 0 0 0 0 0 0 0 127 0" result="hardAlpha"/>
<feOffset dx="2" dy="2"/>
<feComposite in2="hardAlpha" operator="out"/>
<feColorMatrix type="matrix" values="0 0 0 0 0.0392157 0 0 0 0 0.239216 0 0 0 0 0.886275 0 0 0 1 0"/>
<feBlend mode="normal" in2="BackgroundImageFix" result="effect1_dropShadow_127_91"/>
<feBlend mode="normal" in="SourceGraphic" in2="effect1_dropShadow_127_91" result="shape"/>
</filter>
<filter id="filter1_d_127_91" x="65" y="0" width="92" height="202" filterUnits="userSpaceOnUse" color-interpolation-filters="sRGB">
<feFlood flood-opacity="0" result="BackgroundImageFix"/>
<feColorMatrix in="SourceAlpha" type="matrix" values="0 0 0 0 0 0 0 0 0 0 0 0 0 0 0 0 0 0 127 0" result="hardAlpha"/>
<feOffset dx="2" dy="2"/>
<feComposite in2="hardAlpha" operator="out"/>
<feColorMatrix type="matrix" values="0 0 0 0 0.0392157 0 0 0 0 0.239216 0 0 0 0 0.886275 0 0 0 1 0"/>
<feBlend mode="normal" in2="BackgroundImageFix" result="effect1_dropShadow_127_91"/>
<feBlend mode="normal" in="SourceGraphic" in2="effect1_dropShadow_127_91" result="shape"/>
</filter>
<filter id="filter2_d_127_91" x="161" y="0" width="110" height="202" filterUnits="userSpaceOnUse" color-interpolation-filters="sRGB">
<feFlood flood-opacity="0" result="BackgroundImageFix"/>
<feColorMatrix in="SourceAlpha" type="matrix" values="0 0 0 0 0 0 0 0 0 0 0 0 0 0 0 0 0 0 127 0" result="hardAlpha"/>
<feOffset dx="2" dy="2"/>
<feComposite in2="hardAlpha" operator="out"/>
<feColorMatrix type="matrix" values="0 0 0 0 0.0392157 0 0 0 0 0.239216 0 0 0 0 0.886275 0 0 0 1 0"/>
<feBlend mode="normal" in2="BackgroundImageFix" result="effect1_dropShadow_127_91"/>
<feBlend mode="normal" in="SourceGraphic" in2="effect1_dropShadow_127_91" result="shape"/>
</filter>
<filter id="filter3_d_127_91" x="269" y="0" width="96" height="202" filterUnits="userSpaceOnUse" color-interpolation-filters="sRGB">
<feFlood flood-opacity="0" result="BackgroundImageFix"/>
<feColorMatrix in="SourceAlpha" type="matrix" values="0 0 0 0 0 0 0 0 0 0 0 0 0 0 0 0 0 0 127 0" result="hardAlpha"/>
<feOffset dx="2" dy="2"/>
<feComposite in2="hardAlpha" operator="out"/>
<feColorMatrix type="matrix" values="0 0 0 0 0.0392157 0 0 0 0 0.239216 0 0 0 0 0.886275 0 0 0 1 0"/>
<feBlend mode="normal" in2="BackgroundImageFix" result="effect1_dropShadow_127_91"/>
<feBlend mode="normal" in="SourceGraphic" in2="effect1_dropShadow_127_91" result="shape"/>
</filter>
<filter id="filter4_d_127_91" x="363" y="0" width="108" height="202" filterUnits="userSpaceOnUse" color-interpolation-filters="sRGB">
<feFlood flood-opacity="0" result="BackgroundImageFix"/>
<feColorMatrix in="SourceAlpha" type="matrix" values="0 0 0 0 0 0 0 0 0 0 0 0 0 0 0 0 0 0 127 0" result="hardAlpha"/>
<feOffset dx="2" dy="2"/>
<feComposite in2="hardAlpha" operator="out"/>
<feColorMatrix type="matrix" values="0 0 0 0 0.0392157 0 0 0 0 0.239216 0 0 0 0 0.886275 0 0 0 1 0"/>
<feBlend mode="normal" in2="BackgroundImageFix" result="effect1_dropShadow_127_91"/>
<feBlend mode="normal" in="SourceGraphic" in2="effect1_dropShadow_127_91" result="shape"/>
</filter>
<filter id="filter5_d_127_91" x="465" y="0" width="107" height="202" filterUnits="userSpaceOnUse" color-interpolation-filters="sRGB">
<feFlood flood-opacity="0" result="BackgroundImageFix"/>
<feColorMatrix in="SourceAlpha" type="matrix" values="0 0 0 0 0 0 0 0 0 0 0 0 0 0 0 0 0 0 127 0" result="hardAlpha"/>
<feOffset dx="2" dy="2"/>
<feComposite in2="hardAlpha" operator="out"/>
<feColorMatrix type="matrix" values="0 0 0 0 0.0392157 0 0 0 0 0.239216 0 0 0 0 0.886275 0 0 0 1 0"/>
<feBlend mode="normal" in2="BackgroundImageFix" result="effect1_dropShadow_127_91"/>
<feBlend mode="normal" in="SourceGraphic" in2="effect1_dropShadow_127_91" result="shape"/>
</filter>
<filter id="filter6_d_127_91" x="561" y="0" width="96" height="202" filterUnits="userSpaceOnUse" color-interpolation-filters="sRGB">
<feFlood flood-opacity="0" result="BackgroundImageFix"/>
<feColorMatrix in="SourceAlpha" type="matrix" values="0 0 0 0 0 0 0 0 0 0 0 0 0 0 0 0 0 0 127 0" result="hardAlpha"/>
<feOffset dx="2" dy="2"/>
<feComposite in2="hardAlpha" operator="out"/>
<feColorMatrix type="matrix" values="0 0 0 0 0.0392157 0 0 0 0 0.239216 0 0 0 0 0.886275 0 0 0 1 0"/>
<feBlend mode="normal" in2="BackgroundImageFix" result="effect1_dropShadow_127_91"/>
<feBlend mode="normal" in="SourceGraphic" in2="effect1_dropShadow_127_91" result="shape"/>
</filter>
<filter id="filter7_d_127_91" x="691" y="0" width="106" height="202" filterUnits="userSpaceOnUse" color-interpolation-filters="sRGB">
<feFlood flood-opacity="0" result="BackgroundImageFix"/>
<feColorMatrix in="SourceAlpha" type="matrix" values="0 0 0 0 0 0 0 0 0 0 0 0 0 0 0 0 0 0 127 0" result="hardAlpha"/>
<feOffset dx="2" dy="2"/>
<feComposite in2="hardAlpha" operator="out"/>
<feColorMatrix type="matrix" values="0 0 0 0 0.0392157 0 0 0 0 0.239216 0 0 0 0 0.886275 0 0 0 1 0"/>
<feBlend mode="normal" in2="BackgroundImageFix" result="effect1_dropShadow_127_91"/>
<feBlend mode="normal" in="SourceGraphic" in2="effect1_dropShadow_127_91" result="shape"/>
</filter>
<filter id="filter8_d_127_91" x="795" y="0" width="52" height="202" filterUnits="userSpaceOnUse" color-interpolation-filters="sRGB">
<feFlood flood-opacity="0" result="BackgroundImageFix"/>
<feColorMatrix in="SourceAlpha" type="matrix" values="0 0 0 0 0 0 0 0 0 0 0 0 0 0 0 0 0 0 127 0" result="hardAlpha"/>
<feOffset dx="2" dy="2"/>
<feComposite in2="hardAlpha" operator="out"/>
<feColorMatrix type="matrix" values="0 0 0 0 0.0392157 0 0 0 0 0.239216 0 0 0 0 0.886275 0 0 0 1 0"/>
<feBlend mode="normal" in2="BackgroundImageFix" result="effect1_dropShadow_127_91"/>
<feBlend mode="normal" in="SourceGraphic" in2="effect1_dropShadow_127_91" result="shape"/>
</filter>
<filter id="filter9_d_127_91" x="849" y="0" width="81" height="202" filterUnits="userSpaceOnUse" color-interpolation-filters="sRGB">
<feFlood flood-opacity="0" result="BackgroundImageFix"/>
<feColorMatrix in="SourceAlpha" type="matrix" values="0 0 0 0 0 0 0 0 0 0 0 0 0 0 0 0 0 0 127 0" result="hardAlpha"/>
<feOffset dx="2" dy="2"/>
<feComposite in2="hardAlpha" operator="out"/>
<feColorMatrix type="matrix" values="0 0 0 0 0.0392157 0 0 0 0 0.239216 0 0 0 0 0.886275 0 0 0 1 0"/>
<feBlend mode="normal" in2="BackgroundImageFix" result="effect1_dropShadow_127_91"/>
<feBlend mode="normal" in="SourceGraphic" in2="effect1_dropShadow_127_91" result="shape"/>
</filter>
<filter id="filter10_d_127_91" x="931" y="0" width="106" height="202" filterUnits="userSpaceOnUse" color-interpolation-filters="sRGB">
<feFlood flood-opacity="0" result="BackgroundImageFix"/>
<feColorMatrix in="SourceAlpha" type="matrix" values="0 0 0 0 0 0 0 0 0 0 0 0 0 0 0 0 0 0 127 0" result="hardAlpha"/>
<feOffset dx="2" dy="2"/>
<feComposite in2="hardAlpha" operator="out"/>
<feColorMatrix type="matrix" values="0 0 0 0 0.0392157 0 0 0 0 0.239216 0 0 0 0 0.886275 0 0 0 1 0"/>
<feBlend mode="normal" in2="BackgroundImageFix" result="effect1_dropShadow_127_91"/>
<feBlend mode="normal" in="SourceGraphic" in2="effect1_dropShadow_127_91" result="shape"/>
</filter>
</defs>
</svg>
