<svg id="Layer_1" data-name="Layer 1" xmlns="http://www.w3.org/2000/svg" viewBox="0 0 973.59 186.8"><defs><style>.cls-1{fill:#f40cf4;}</style></defs><path class="cls-1" d="M0,168.16c0-10.78,10.31-52.73,9.14-82.73A42.63,42.63,0,0,0,6.91,71.25h3.64a41.41,41.41,0,0,1,2.57,14.18C14,116.37,3.87,159,3.87,168.87s4.45,12.77,11.72,12.77c5.62,0,8.67-3.4,8.67-10.78,0-10.9-5.74-66.91-5.74-98.2V62C18.52,9.84,13.83,3.87,7.27.47L7.5,0c8.91,2.46,15.12,3.4,22.85,3.4h1.41c7.73,0,13.94-.94,22.85-3.4l.23.47C48.28,3.87,43.59,9.84,43.59,62l-.11-.58v9.84c0,38.55,6.09,82.62,6.09,95.27s-8.32,19.81-29.18,19.81C5.27,186.33,0,182.34,0,168.16Z"/><path class="cls-1" d="M60.82,165c0-10.08,8.32-17,8.32-27.66,0-21.21-9.14-33-9.14-44.41s10.31-21.8,10.31-43.48c0-10.66-6.09-19.92-6.09-30.82C64.22,5.74,78.05.47,102.42.47c24,0,38.44,5.27,38.44,18.16,0,10.9-6,20.16-6,30.82,0,21.68,10.43,32,10.43,43.48s-9.14,23.2-9.14,44.41c0,10.67,8.32,17.58,8.32,27.66,0,16.17-16.17,21.33-42.07,21.33C76.88,186.33,60.82,181.17,60.82,165Zm57.89,9.49c0-8.79-11.6-19-11.6-35.15,0-34.11,34.1-30.71,34.1-46.18,0-15.93-34.69-19.1-34.69-45.82,0-16.17,11.14-26.36,11.14-35.27C117.66,6,113.09,4,102.42,4,92,4,87.54,6,87.54,12.07c0,8.91,11.13,19.1,11.13,35.27C98.67,74.06,64,77.23,64,93.16c0,15.47,34.11,12.07,34.11,46.18,0,16.17-11.61,26.36-11.61,35.15,0,6.33,4.69,8.32,15.94,8.32S118.71,180.82,118.71,174.49Z"/><path class="cls-1" d="M151.05,186.8l-.23-.47c6.56-3.4,11.25-9.38,11.25-61.53V62c0-52.15-4.69-58.12-11.25-61.52l.23-.47c8.91,2.46,15.12,3.4,22.86,3.4h1.17c8.79,0,15.7-2.7,26.6-2.7,10.31,0,17.23,2.7,26,2.7h1.4c7.74,0,14-.94,22.85-3.4l.24.47c-6.57,3.4-11.25,9.37-11.25,61.52l-.12-.58V124.8c0,52.15,4.69,58.13,11.25,61.53l-.23.47c-8.91-2.46-15.12-3.4-22.86-3.4H227.7c-8.79,0-15.71,2.69-26,2.69-10.9,0-17.81-2.69-26.6-2.69h-1.17C166.17,183.4,160,184.34,151.05,186.8Zm36-99.38h28.71V62c0-54.49-6-58.83-14.06-58.83S187,7.5,187,62Zm28.71,6.21V90.7H187v2.93Zm-14.06,90c8.09,0,14.06-4.33,14.06-58.83V97H187V124.8C187,179.3,193.59,183.63,201.68,183.63Z"/><path class="cls-1" d="M315.94,183.4c-9.14,0-17.11,2.93-26.14,2.93-7.5,0-12.77-2.93-19.45-2.93-4.57,0-8.55.94-16.29,3.4l-.23-.47c6.21-3.17,11-9.14,15.58-61.06l9.5-101.36C280.78,4.22,285.82.47,295.78.47c11.72,0,17.58,4.92,20,28L325.55,122c5.5,56,10.07,61.17,16.29,64.34l-.24.47A88.83,88.83,0,0,0,315.94,183.4Zm-15.47-36.21H279.38c-.12,31.05,3,36,10,36C295.9,183.16,300.59,177.89,300.47,147.19Zm0-3.4V141H279.38v2.81Zm-21-6.21h20.86c-.12-4.92-.35-10.43-.7-16.41l-6-98.32c-.58-10.66-2.11-12.19-5.15-12.19s-5.28,2-5.51,12.07l-3.28,103.72C279.61,130.43,279.49,134.18,279.49,137.58Z"/><path class="cls-1" d="M420.7,3.4c7.15,0,12.07-1.17,19.92-3.28l.24.47C434.77,4,427.15,7.5,428.09,62.23l1.64,105.23c.47,13.48-6.45,18.87-19.69,18.87-15.35,0-22.27-5-25.08-31.29L372.66,26.13c-1.88-15.58-3.4-17.46-7.39-17.46-3.16,0-5.27,2.7-5.27,8.09,0,1.29.12,2.81.59,12.42l5.15,100.43c3.05,49,7.5,52.62,15.47,56.72l-.23.47c-8.21-2.46-13.36-3.4-20.51-3.4-6.09,0-10.9.7-18.75,3.4l-.24-.47c5.86-3.28,13.72-8.91,13.72-57L355.31,20C355.2,6.45,360.59.47,374.53.47c13.36,0,22.38,5.51,25.08,24.26l13.24,144.49c1.53,8.32,3.75,9.73,6.8,9.73s6.09-2.47,6.09-8.56c0-1.29-.23-3.28-.94-12.77L418,61.76c-4.22-50.86-9.73-58-16.41-61.29l.12-.47C409.8,2.7,414.84,3.4,420.7,3.4Z"/><path class="cls-1" d="M515.39,3.4c7.15,0,12.07-1.17,19.92-3.28l.24.47C529.45,4,521.84,7.5,522.77,62.23l1.64,105.23c.47,13.48-6.44,18.87-19.68,18.87-15.35,0-22.27-5-25.08-31.29L467.34,26.13C465.47,10.55,464,8.67,460,8.67c-3.16,0-5.27,2.7-5.27,8.09,0,1.29.11,2.81.58,12.42l5.16,100.43c3.05,49,7.5,52.62,15.47,56.72l-.24.47c-8.2-2.46-13.36-3.4-20.5-3.4-6.1,0-10.9.7-18.75,3.4l-.24-.47c5.86-3.28,13.71-8.91,13.71-57L450,20C449.88,6.45,455.27.47,469.22.47,482.58.47,491.6,6,494.3,24.73l13.24,144.49c1.52,8.32,3.75,9.73,6.8,9.73s6.09-2.47,6.09-8.56c0-1.29-.23-3.28-.94-12.77L512.7,61.76C508.48,10.9,503,3.75,496.29.47l.12-.47C504.49,2.7,509.53,3.4,515.39,3.4Z"/><path class="cls-1" d="M588.87,183.4c-9.14,0-17.11,2.93-26.14,2.93-7.5,0-12.77-2.93-19.45-2.93-4.57,0-8.55.94-16.29,3.4l-.23-.47c6.21-3.17,11-9.14,15.58-61.06l9.5-101.36C553.71,4.22,558.75.47,568.71.47c11.72,0,17.58,4.92,20,28L598.48,122c5.5,56,10.07,61.17,16.29,64.34l-.24.47A88.83,88.83,0,0,0,588.87,183.4ZM573.4,147.19H552.3c-.11,31.05,3.05,36,10,36C568.83,183.16,573.52,177.89,573.4,147.19Zm0-3.4V141H552.3v2.81Zm-21-6.21h20.86c-.12-4.92-.35-10.43-.7-16.41l-6-98.32c-.58-10.66-2.11-12.19-5.15-12.19s-5.28,2-5.51,12.07l-3.28,103.72C552.54,130.43,552.42,134.18,552.42,137.58Z"/><path class="cls-1" d="M661.29,177.07c-2.58,5.74-6.56,9.61-12.31,9.73l-.11-.47c2.22-1.17,4.8-3.87,8-11.25l1.17-2.93a19.43,19.43,0,0,1-1.29-7.15c0-10.08,8.32-17,8.32-27.66,0-21.21-9.14-33-9.14-44.41s10.31-21.8,10.31-43.48c0-10.66-6.09-19.92-6.09-30.82C660.12,5.74,674,.47,698.32.47c18.4,0,31.17,3.05,36.09,10.31l.47-.82c2.46-5.74,6.57-9.84,12.42-10l.12.47c-2.22,1.17-4.8,4-8,11.25l-2.69,5.51v1.4c0,10.9-6,20.16-6,30.82,0,21.68,10.43,32,10.43,43.48s-9.14,23.2-9.14,44.41c0,10.67,8.32,17.58,8.32,27.66,0,16.17-16.17,21.33-42.07,21.33C680.74,186.33,667.73,183.87,661.29,177.07Zm24.37-60.94,23.09-51.56a25.77,25.77,0,0,1-6.33-17.23c0-16.17,11.13-26.36,11.13-35.27C713.55,6,709,4,698.32,4c-10.43,0-14.88,2-14.88,8.09,0,8.91,11.13,19.1,11.13,35.27,0,26.72-34.69,29.89-34.69,45.82C659.88,103.59,675.47,105.47,685.66,116.13Zm29,58.36c0-8.79-11.6-19-11.6-35.15,0-34.11,34.1-30.71,34.1-46.18,0-10.31-14.41-15.23-24.61-24.61l-23.44,52c2.93,4.68,4.92,10.66,4.92,18.75,0,16.17-11.6,26.36-11.6,35.15,0,6.33,4.69,8.32,15.94,8.32S714.61,180.82,714.61,174.49Z"/><path class="cls-1" d="M747,186.8l-.23-.47C753.28,182.93,758,177,758,124.8V62C758,9.84,753.28,3.87,746.72.47L747,0c8.91,2.46,15.12,3.4,22.85,3.4h1.29C778.83,3.4,785,2.46,794,0l.23.47c-6.56,3.4-11.25,9.37-11.25,61.52V124.8c0,52.15,4.69,58.13,11.25,61.53l-.23.47c-8.91-2.46-15.12-3.4-22.86-3.4H769.8C762.07,183.4,755.86,184.34,747,186.8Z"/><path class="cls-1" d="M861.91,3.16A15.67,15.67,0,0,0,871.29.35l.59.35c-4.58,7.85-7.86,20.51-7.86,40,0,16.29.12,26.84,1.18,37.86h-1.53c-3.4-25.08-9.26-47.35-13.71-58.95s-8.32-15.7-14.18-15.7c-8.9,0-9.61,7.26-9.61,85,13.48-3.52,14.77-10.2,21.1-49.69h1.4c-2.58,32.23-3.4,71.48,0,105.59h-1.4c-6.33-42.66-7.62-50-21.1-53.44,0,79.45.24,91.64,9,91.64,5.5,0,9.25-4.1,14.29-16.88S861.91,127.73,866,98.91h1.64a399.19,399.19,0,0,0-2.82,48.51c0,18.4,2,31.53,6.21,38.91l-.35.23a17.63,17.63,0,0,0-9.61-2.69c-7.14,0-15.11,2.46-25.07,2.46-22.62,0-38.56-11.84-38.56-95,0-79.69,16.64-90.82,37-90.82C845.39.47,854.18,3.16,861.91,3.16Z"/><path class="cls-1" d="M953.44,3.4c7.15,0,12.07-1.17,19.92-3.28l.23.47C967.5,4,959.88,7.5,960.82,62.23l1.64,105.23c.47,13.48-6.44,18.87-19.69,18.87-15.35,0-22.26-5-25.07-31.29L905.39,26.13C903.52,10.55,902,8.67,898,8.67c-3.17,0-5.28,2.7-5.28,8.09,0,1.29.12,2.81.59,12.42l5.16,100.43c3,49,7.5,52.62,15.47,56.72l-.24.47c-8.2-2.46-13.36-3.4-20.51-3.4-6.09,0-10.9.7-18.75,3.4l-.23-.47c5.86-3.28,13.71-8.91,13.71-57L888.05,20C887.93,6.45,893.32.47,907.27.47c13.35,0,22.38,5.51,25.07,24.26l13.25,144.49c1.52,8.32,3.75,9.73,6.79,9.73s6.1-2.47,6.1-8.56c0-1.29-.24-3.28-.94-12.77l-6.8-95.86C946.52,10.9,941,3.75,934.34.47l.11-.47C942.54,2.7,947.58,3.4,953.44,3.4Z"/></svg>